<svg xmlns="http://www.w3.org/2000/svg" xmlns:xlink="http://www.w3.org/1999/xlink" width="816" zoomAndPan="magnify" viewBox="0 0 612 791.999994" height="1056" preserveAspectRatio="xMidYMid meet" version="1.2"><defs><clipPath id="345c27b795"><path d="M 0 309.277344 L 612 309.277344 L 612 482.722656 L 0 482.722656 Z M 0 309.277344 "/></clipPath><clipPath id="117e08de68"><path d="M 0 324.300781 L 612 324.300781 L 612 337.695312 L 0 337.695312 Z M 0 324.300781 "/></clipPath><clipPath id="f79dd79a3e"><path d="M 0 454.066406 L 612 454.066406 L 612 466.066406 L 0 466.066406 Z M 0 454.066406 "/></clipPath><clipPath id="d60223a9a8"><path d="M 13.683594 154.066406 L 25.683594 154.066406 L 25.683594 766.066406 L 13.683594 766.066406 Z M 13.683594 154.066406 "/></clipPath><clipPath id="9746b12a94"><path d="M 586.316406 180 L 598.316406 180 L 598.316406 792 L 586.316406 792 Z M 586.316406 180 "/></clipPath></defs><g id="46ced79d23"><rect x="0" width="612" y="0" height="791.999994" style="fill:#ffffff;fill-opacity:1;stroke:none;"/><rect x="0" width="612" y="0" height="791.999994" style="fill:#ffffff;fill-opacity:1;stroke:none;"/><g clip-rule="nonzero" clip-path="url(#345c27b795)"><path style=" stroke:none;fill-rule:nonzero;fill:#256eb4;fill-opacity:1;" d="M 0 309.277344 L 611.804688 309.277344 L 611.804688 482.722656 L 0 482.722656 Z M 0 309.277344 "/></g><g clip-rule="nonzero" clip-path="url(#117e08de68)"><path style=" stroke:none;fill-rule:nonzero;fill:#ffffff;fill-opacity:1;" d="M 0 324.300781 L 611.976562 324.300781 L 611.976562 337.695312 L 0 337.695312 Z M 0 324.300781 "/></g><g clip-rule="nonzero" clip-path="url(#f79dd79a3e)"><path style=" stroke:none;fill-rule:nonzero;fill:#ffffff;fill-opacity:1;" d="M 0 454.066406 L 612 454.066406 L 612 466.066406 L 0 466.066406 Z M 0 454.066406 "/></g><g clip-rule="nonzero" clip-path="url(#d60223a9a8)"><path style=" stroke:none;fill-rule:nonzero;fill:#ffffff;fill-opacity:1;" d="M 25.683594 154.066406 L 25.683594 766.066406 L 13.683594 766.066406 L 13.683594 154.066406 Z M 25.683594 154.066406 "/></g><g clip-rule="nonzero" clip-path="url(#9746b12a94)"><path style=" stroke:none;fill-rule:nonzero;fill:#ffffff;fill-opacity:1;" d="M 598.316406 180 L 598.316406 792 L 586.316406 792 L 586.316406 180 Z M 598.316406 180 "/></g><g style="fill:#ffffff;fill-opacity:1;"><g transform="translate(28.987479, 388.500001)"><path style="stroke:none" d="M 2.609375 -26.125 L 14.96875 -26.125 C 17.832031 -26.125 20.367188 -25.585938 22.578125 -24.515625 C 24.796875 -23.453125 26.515625 -21.9375 27.734375 -19.96875 C 28.953125 -18 29.5625 -15.695312 29.5625 -13.0625 C 29.5625 -10.425781 28.953125 -8.125 27.734375 -6.15625 C 26.515625 -4.1875 24.796875 -2.664062 22.578125 -1.59375 C 20.367188 -0.53125 17.832031 0 14.96875 0 L 2.609375 0 Z M 14.671875 -5.890625 C 16.910156 -5.890625 18.707031 -6.523438 20.0625 -7.796875 C 21.414062 -9.066406 22.09375 -10.820312 22.09375 -13.0625 C 22.09375 -15.300781 21.414062 -17.054688 20.0625 -18.328125 C 18.707031 -19.597656 16.910156 -20.234375 14.671875 -20.234375 L 10 -20.234375 L 10 -5.890625 Z M 14.671875 -5.890625 "/></g></g><g style="fill:#ffffff;fill-opacity:1;"><g transform="translate(59.817254, 388.500001)"><path style="stroke:none" d="M 2.609375 -26.125 L 10 -26.125 L 10 0 L 2.609375 0 Z M 2.609375 -26.125 "/></g></g><g style="fill:#ffffff;fill-opacity:1;"><g transform="translate(72.47015, 388.500001)"><path style="stroke:none" d="M 10 -20.421875 L 10 -14.671875 L 21.53125 -14.671875 L 21.53125 -8.953125 L 10 -8.953125 L 10 0 L 2.609375 0 L 2.609375 -26.125 L 23.109375 -26.125 L 23.109375 -20.421875 Z M 10 -20.421875 "/></g></g><g style="fill:#ffffff;fill-opacity:1;"><g transform="translate(96.432281, 388.500001)"><path style="stroke:none" d="M 10 -20.421875 L 10 -14.671875 L 21.53125 -14.671875 L 21.53125 -8.953125 L 10 -8.953125 L 10 0 L 2.609375 0 L 2.609375 -26.125 L 23.109375 -26.125 L 23.109375 -20.421875 Z M 10 -20.421875 "/></g></g><g style="fill:#ffffff;fill-opacity:1;"><g transform="translate(120.394411, 388.500001)"><path style="stroke:none" d="M 23.59375 -5.71875 L 23.59375 0 L 2.609375 0 L 2.609375 -26.125 L 23.109375 -26.125 L 23.109375 -20.421875 L 9.921875 -20.421875 L 9.921875 -16.015625 L 21.53125 -16.015625 L 21.53125 -10.484375 L 9.921875 -10.484375 L 9.921875 -5.71875 Z M 23.59375 -5.71875 "/></g></g><g style="fill:#ffffff;fill-opacity:1;"><g transform="translate(145.476266, 388.500001)"><path style="stroke:none" d="M 14.03125 -6.9375 L 10 -6.9375 L 10 0 L 2.609375 0 L 2.609375 -26.125 L 14.5625 -26.125 C 16.925781 -26.125 18.976562 -25.734375 20.71875 -24.953125 C 22.457031 -24.171875 23.800781 -23.050781 24.75 -21.59375 C 25.695312 -20.132812 26.171875 -18.425781 26.171875 -16.46875 C 26.171875 -14.570312 25.726562 -12.921875 24.84375 -11.515625 C 23.957031 -10.109375 22.691406 -9.007812 21.046875 -8.21875 L 26.6875 0 L 18.78125 0 Z M 18.703125 -16.46875 C 18.703125 -17.6875 18.316406 -18.628906 17.546875 -19.296875 C 16.773438 -19.972656 15.628906 -20.3125 14.109375 -20.3125 L 10 -20.3125 L 10 -12.65625 L 14.109375 -12.65625 C 15.628906 -12.65625 16.773438 -12.984375 17.546875 -13.640625 C 18.316406 -14.296875 18.703125 -15.238281 18.703125 -16.46875 Z M 18.703125 -16.46875 "/></g></g><g style="fill:#ffffff;fill-opacity:1;"><g transform="translate(173.096168, 388.500001)"><path style="stroke:none" d="M 23.59375 -5.71875 L 23.59375 0 L 2.609375 0 L 2.609375 -26.125 L 23.109375 -26.125 L 23.109375 -20.421875 L 9.921875 -20.421875 L 9.921875 -16.015625 L 21.53125 -16.015625 L 21.53125 -10.484375 L 9.921875 -10.484375 L 9.921875 -5.71875 Z M 23.59375 -5.71875 "/></g></g><g style="fill:#ffffff;fill-opacity:1;"><g transform="translate(198.178022, 388.500001)"><path style="stroke:none" d="M 27.46875 -26.125 L 27.46875 0 L 21.390625 0 L 9.859375 -13.921875 L 9.859375 0 L 2.609375 0 L 2.609375 -26.125 L 8.703125 -26.125 L 20.234375 -12.203125 L 20.234375 -26.125 Z M 27.46875 -26.125 "/></g></g><g style="fill:#ffffff;fill-opacity:1;"><g transform="translate(228.261334, 388.500001)"><path style="stroke:none" d="M 8.171875 -20.265625 L 0.15625 -20.265625 L 0.15625 -26.125 L 23.546875 -26.125 L 23.546875 -20.265625 L 15.5625 -20.265625 L 15.5625 0 L 8.171875 0 Z M 8.171875 -20.265625 "/></g></g><g style="fill:#ffffff;fill-opacity:1;"><g transform="translate(251.962184, 388.500001)"><path style="stroke:none" d="M 2.609375 -26.125 L 10 -26.125 L 10 0 L 2.609375 0 Z M 2.609375 -26.125 "/></g></g><g style="fill:#ffffff;fill-opacity:1;"><g transform="translate(264.615091, 388.500001)"><path style="stroke:none" d="M 20.125 -5.078125 L 9.078125 -5.078125 L 7.015625 0 L -0.515625 0 L 11.015625 -26.125 L 18.296875 -26.125 L 29.859375 0 L 22.171875 0 Z M 17.953125 -10.53125 L 14.59375 -18.890625 L 11.234375 -10.53125 Z M 17.953125 -10.53125 "/></g></g><g style="fill:#ffffff;fill-opacity:1;"><g transform="translate(293.951882, 388.500001)"><path style="stroke:none" d="M 2.609375 -26.125 L 10 -26.125 L 10 -5.859375 L 22.46875 -5.859375 L 22.46875 0 L 2.609375 0 Z M 2.609375 -26.125 "/></g></g><g style="fill:#ffffff;fill-opacity:1;"><g transform="translate(316.719649, 388.500001)"><path style="stroke:none" d=""/></g></g><g style="fill:#ffffff;fill-opacity:1;"><g transform="translate(327.580985, 388.500001)"><path style="stroke:none" d="M 23.59375 -5.71875 L 23.59375 0 L 2.609375 0 L 2.609375 -26.125 L 23.109375 -26.125 L 23.109375 -20.421875 L 9.921875 -20.421875 L 9.921875 -16.015625 L 21.53125 -16.015625 L 21.53125 -10.484375 L 9.921875 -10.484375 L 9.921875 -5.71875 Z M 23.59375 -5.71875 "/></g></g><g style="fill:#ffffff;fill-opacity:1;"><g transform="translate(352.662839, 388.500001)"><path style="stroke:none" d="M 19.109375 0 L 13.703125 -8.09375 L 8.359375 0 L -0.078125 0 L 9.4375 -13.21875 L 0.34375 -26.125 L 8.65625 -26.125 L 13.890625 -18.59375 L 19.03125 -26.125 L 27.03125 -26.125 L 17.921875 -13.515625 L 27.625 0 Z M 19.109375 0 "/></g></g><g style="fill:#ffffff;fill-opacity:1;"><g transform="translate(380.17075, 388.500001)"><path style="stroke:none" d="M 14.5625 -26.125 C 16.925781 -26.125 18.976562 -25.734375 20.71875 -24.953125 C 22.457031 -24.171875 23.800781 -23.050781 24.75 -21.59375 C 25.695312 -20.132812 26.171875 -18.425781 26.171875 -16.46875 C 26.171875 -14.5 25.695312 -12.789062 24.75 -11.34375 C 23.800781 -9.90625 22.457031 -8.789062 20.71875 -8 C 18.976562 -7.21875 16.925781 -6.828125 14.5625 -6.828125 L 10 -6.828125 L 10 0 L 2.609375 0 L 2.609375 -26.125 Z M 14.109375 -12.65625 C 15.628906 -12.65625 16.773438 -12.984375 17.546875 -13.640625 C 18.316406 -14.296875 18.703125 -15.238281 18.703125 -16.46875 C 18.703125 -17.6875 18.316406 -18.628906 17.546875 -19.296875 C 16.773438 -19.972656 15.628906 -20.3125 14.109375 -20.3125 L 10 -20.3125 L 10 -12.65625 Z M 14.109375 -12.65625 "/></g></g><g style="fill:#ffffff;fill-opacity:1;"><g transform="translate(407.678683, 388.500001)"><path style="stroke:none" d="M 14.03125 -6.9375 L 10 -6.9375 L 10 0 L 2.609375 0 L 2.609375 -26.125 L 14.5625 -26.125 C 16.925781 -26.125 18.976562 -25.734375 20.71875 -24.953125 C 22.457031 -24.171875 23.800781 -23.050781 24.75 -21.59375 C 25.695312 -20.132812 26.171875 -18.425781 26.171875 -16.46875 C 26.171875 -14.570312 25.726562 -12.921875 24.84375 -11.515625 C 23.957031 -10.109375 22.691406 -9.007812 21.046875 -8.21875 L 26.6875 0 L 18.78125 0 Z M 18.703125 -16.46875 C 18.703125 -17.6875 18.316406 -18.628906 17.546875 -19.296875 C 16.773438 -19.972656 15.628906 -20.3125 14.109375 -20.3125 L 10 -20.3125 L 10 -12.65625 L 14.109375 -12.65625 C 15.628906 -12.65625 16.773438 -12.984375 17.546875 -13.640625 C 18.316406 -14.296875 18.703125 -15.238281 18.703125 -16.46875 Z M 18.703125 -16.46875 "/></g></g><g style="fill:#ffffff;fill-opacity:1;"><g transform="translate(435.298585, 388.500001)"><path style="stroke:none" d="M 23.59375 -5.71875 L 23.59375 0 L 2.609375 0 L 2.609375 -26.125 L 23.109375 -26.125 L 23.109375 -20.421875 L 9.921875 -20.421875 L 9.921875 -16.015625 L 21.53125 -16.015625 L 21.53125 -10.484375 L 9.921875 -10.484375 L 9.921875 -5.71875 Z M 23.59375 -5.71875 "/></g></g><g style="fill:#ffffff;fill-opacity:1;"><g transform="translate(460.380462, 388.500001)"><path style="stroke:none" d="M 11.796875 0.515625 C 9.679688 0.515625 7.628906 0.253906 5.640625 -0.265625 C 3.648438 -0.785156 2.03125 -1.484375 0.78125 -2.359375 L 3.203125 -7.796875 C 4.378906 -7.023438 5.738281 -6.398438 7.28125 -5.921875 C 8.820312 -5.453125 10.335938 -5.21875 11.828125 -5.21875 C 14.671875 -5.21875 16.09375 -5.929688 16.09375 -7.359375 C 16.09375 -8.097656 15.6875 -8.648438 14.875 -9.015625 C 14.0625 -9.378906 12.757812 -9.757812 10.96875 -10.15625 C 9.007812 -10.570312 7.367188 -11.023438 6.046875 -11.515625 C 4.722656 -12.003906 3.585938 -12.78125 2.640625 -13.84375 C 1.703125 -14.914062 1.234375 -16.359375 1.234375 -18.171875 C 1.234375 -19.765625 1.664062 -21.203125 2.53125 -22.484375 C 3.40625 -23.765625 4.707031 -24.78125 6.4375 -25.53125 C 8.164062 -26.28125 10.285156 -26.65625 12.796875 -26.65625 C 14.515625 -26.65625 16.207031 -26.460938 17.875 -26.078125 C 19.539062 -25.691406 21.007812 -25.125 22.28125 -24.375 L 20.015625 -18.890625 C 17.523438 -20.234375 15.109375 -20.90625 12.765625 -20.90625 C 11.296875 -20.90625 10.222656 -20.6875 9.546875 -20.25 C 8.878906 -19.8125 8.546875 -19.242188 8.546875 -18.546875 C 8.546875 -17.847656 8.941406 -17.328125 9.734375 -16.984375 C 10.535156 -16.640625 11.820312 -16.28125 13.59375 -15.90625 C 15.582031 -15.476562 17.226562 -15.019531 18.53125 -14.53125 C 19.84375 -14.050781 20.976562 -13.28125 21.9375 -12.21875 C 22.894531 -11.164062 23.375 -9.726562 23.375 -7.90625 C 23.375 -6.34375 22.9375 -4.925781 22.0625 -3.65625 C 21.1875 -2.382812 19.878906 -1.367188 18.140625 -0.609375 C 16.398438 0.140625 14.285156 0.515625 11.796875 0.515625 Z M 11.796875 0.515625 "/></g></g><g style="fill:#ffffff;fill-opacity:1;"><g transform="translate(484.529188, 388.500001)"><path style="stroke:none" d="M 11.796875 0.515625 C 9.679688 0.515625 7.628906 0.253906 5.640625 -0.265625 C 3.648438 -0.785156 2.03125 -1.484375 0.78125 -2.359375 L 3.203125 -7.796875 C 4.378906 -7.023438 5.738281 -6.398438 7.28125 -5.921875 C 8.820312 -5.453125 10.335938 -5.21875 11.828125 -5.21875 C 14.671875 -5.21875 16.09375 -5.929688 16.09375 -7.359375 C 16.09375 -8.097656 15.6875 -8.648438 14.875 -9.015625 C 14.0625 -9.378906 12.757812 -9.757812 10.96875 -10.15625 C 9.007812 -10.570312 7.367188 -11.023438 6.046875 -11.515625 C 4.722656 -12.003906 3.585938 -12.78125 2.640625 -13.84375 C 1.703125 -14.914062 1.234375 -16.359375 1.234375 -18.171875 C 1.234375 -19.765625 1.664062 -21.203125 2.53125 -22.484375 C 3.40625 -23.765625 4.707031 -24.78125 6.4375 -25.53125 C 8.164062 -26.28125 10.285156 -26.65625 12.796875 -26.65625 C 14.515625 -26.65625 16.207031 -26.460938 17.875 -26.078125 C 19.539062 -25.691406 21.007812 -25.125 22.28125 -24.375 L 20.015625 -18.890625 C 17.523438 -20.234375 15.109375 -20.90625 12.765625 -20.90625 C 11.296875 -20.90625 10.222656 -20.6875 9.546875 -20.25 C 8.878906 -19.8125 8.546875 -19.242188 8.546875 -18.546875 C 8.546875 -17.847656 8.941406 -17.328125 9.734375 -16.984375 C 10.535156 -16.640625 11.820312 -16.28125 13.59375 -15.90625 C 15.582031 -15.476562 17.226562 -15.019531 18.53125 -14.53125 C 19.84375 -14.050781 20.976562 -13.28125 21.9375 -12.21875 C 22.894531 -11.164062 23.375 -9.726562 23.375 -7.90625 C 23.375 -6.34375 22.9375 -4.925781 22.0625 -3.65625 C 21.1875 -2.382812 19.878906 -1.367188 18.140625 -0.609375 C 16.398438 0.140625 14.285156 0.515625 11.796875 0.515625 Z M 11.796875 0.515625 "/></g></g><g style="fill:#ffffff;fill-opacity:1;"><g transform="translate(508.677914, 388.500001)"><path style="stroke:none" d="M 2.609375 -26.125 L 10 -26.125 L 10 0 L 2.609375 0 Z M 2.609375 -26.125 "/></g></g><g style="fill:#ffffff;fill-opacity:1;"><g transform="translate(521.330822, 388.500001)"><path style="stroke:none" d="M 15.796875 0.515625 C 13.023438 0.515625 10.539062 -0.0664062 8.34375 -1.234375 C 6.144531 -2.398438 4.414062 -4.015625 3.15625 -6.078125 C 1.894531 -8.148438 1.265625 -10.476562 1.265625 -13.0625 C 1.265625 -15.65625 1.894531 -17.984375 3.15625 -20.046875 C 4.414062 -22.109375 6.144531 -23.722656 8.34375 -24.890625 C 10.539062 -26.066406 13.023438 -26.65625 15.796875 -26.65625 C 18.554688 -26.65625 21.035156 -26.066406 23.234375 -24.890625 C 25.441406 -23.722656 27.171875 -22.109375 28.421875 -20.046875 C 29.679688 -17.984375 30.3125 -15.65625 30.3125 -13.0625 C 30.3125 -10.476562 29.679688 -8.148438 28.421875 -6.078125 C 27.171875 -4.015625 25.441406 -2.398438 23.234375 -1.234375 C 21.035156 -0.0664062 18.554688 0.515625 15.796875 0.515625 Z M 15.796875 -5.59375 C 17.109375 -5.59375 18.300781 -5.90625 19.375 -6.53125 C 20.445312 -7.15625 21.289062 -8.03125 21.90625 -9.15625 C 22.53125 -10.289062 22.84375 -11.59375 22.84375 -13.0625 C 22.84375 -14.53125 22.53125 -15.832031 21.90625 -16.96875 C 21.289062 -18.101562 20.445312 -18.976562 19.375 -19.59375 C 18.300781 -20.21875 17.109375 -20.53125 15.796875 -20.53125 C 14.472656 -20.53125 13.273438 -20.21875 12.203125 -19.59375 C 11.128906 -18.976562 10.28125 -18.101562 9.65625 -16.96875 C 9.039062 -15.832031 8.734375 -14.53125 8.734375 -13.0625 C 8.734375 -11.59375 9.039062 -10.289062 9.65625 -9.15625 C 10.28125 -8.03125 11.128906 -7.15625 12.203125 -6.53125 C 13.273438 -5.90625 14.472656 -5.59375 15.796875 -5.59375 Z M 15.796875 -5.59375 "/></g></g><g style="fill:#ffffff;fill-opacity:1;"><g transform="translate(552.907084, 388.500001)"><path style="stroke:none" d="M 27.46875 -26.125 L 27.46875 0 L 21.390625 0 L 9.859375 -13.921875 L 9.859375 0 L 2.609375 0 L 2.609375 -26.125 L 8.703125 -26.125 L 20.234375 -12.203125 L 20.234375 -26.125 Z M 27.46875 -26.125 "/></g></g><g style="fill:#ffffff;fill-opacity:1;"><g transform="translate(206.819505, 428.999999)"><path style="stroke:none" d="M 20.125 -5.078125 L 9.078125 -5.078125 L 7.015625 0 L -0.515625 0 L 11.015625 -26.125 L 18.296875 -26.125 L 29.859375 0 L 22.171875 0 Z M 17.953125 -10.53125 L 14.59375 -18.890625 L 11.234375 -10.53125 Z M 17.953125 -10.53125 "/></g></g><g style="fill:#ffffff;fill-opacity:1;"><g transform="translate(236.156318, 428.999999)"><path style="stroke:none" d="M 27.46875 -26.125 L 27.46875 0 L 21.390625 0 L 9.859375 -13.921875 L 9.859375 0 L 2.609375 0 L 2.609375 -26.125 L 8.703125 -26.125 L 20.234375 -12.203125 L 20.234375 -26.125 Z M 27.46875 -26.125 "/></g></g><g style="fill:#ffffff;fill-opacity:1;"><g transform="translate(266.239619, 428.999999)"><path style="stroke:none" d="M 20.125 -5.078125 L 9.078125 -5.078125 L 7.015625 0 L -0.515625 0 L 11.015625 -26.125 L 18.296875 -26.125 L 29.859375 0 L 22.171875 0 Z M 17.953125 -10.53125 L 14.59375 -18.890625 L 11.234375 -10.53125 Z M 17.953125 -10.53125 "/></g></g><g style="fill:#ffffff;fill-opacity:1;"><g transform="translate(295.576432, 428.999999)"><path style="stroke:none" d="M 2.609375 -26.125 L 10 -26.125 L 10 -5.859375 L 22.46875 -5.859375 L 22.46875 0 L 2.609375 0 Z M 2.609375 -26.125 "/></g></g><g style="fill:#ffffff;fill-opacity:1;"><g transform="translate(318.344188, 428.999999)"><path style="stroke:none" d="M 16.609375 -9.375 L 16.609375 0 L 9.21875 0 L 9.21875 -9.484375 L -0.75 -26.125 L 7.0625 -26.125 L 13.25 -15.75 L 19.453125 -26.125 L 26.609375 -26.125 Z M 16.609375 -9.375 "/></g></g><g style="fill:#ffffff;fill-opacity:1;"><g transform="translate(344.209849, 428.999999)"><path style="stroke:none" d="M 11.796875 0.515625 C 9.679688 0.515625 7.628906 0.253906 5.640625 -0.265625 C 3.648438 -0.785156 2.03125 -1.484375 0.78125 -2.359375 L 3.203125 -7.796875 C 4.378906 -7.023438 5.738281 -6.398438 7.28125 -5.921875 C 8.820312 -5.453125 10.335938 -5.21875 11.828125 -5.21875 C 14.671875 -5.21875 16.09375 -5.929688 16.09375 -7.359375 C 16.09375 -8.097656 15.6875 -8.648438 14.875 -9.015625 C 14.0625 -9.378906 12.757812 -9.757812 10.96875 -10.15625 C 9.007812 -10.570312 7.367188 -11.023438 6.046875 -11.515625 C 4.722656 -12.003906 3.585938 -12.78125 2.640625 -13.84375 C 1.703125 -14.914062 1.234375 -16.359375 1.234375 -18.171875 C 1.234375 -19.765625 1.664062 -21.203125 2.53125 -22.484375 C 3.40625 -23.765625 4.707031 -24.78125 6.4375 -25.53125 C 8.164062 -26.28125 10.285156 -26.65625 12.796875 -26.65625 C 14.515625 -26.65625 16.207031 -26.460938 17.875 -26.078125 C 19.539062 -25.691406 21.007812 -25.125 22.28125 -24.375 L 20.015625 -18.890625 C 17.523438 -20.234375 15.109375 -20.90625 12.765625 -20.90625 C 11.296875 -20.90625 10.222656 -20.6875 9.546875 -20.25 C 8.878906 -19.8125 8.546875 -19.242188 8.546875 -18.546875 C 8.546875 -17.847656 8.941406 -17.328125 9.734375 -16.984375 C 10.535156 -16.640625 11.820312 -16.28125 13.59375 -15.90625 C 15.582031 -15.476562 17.226562 -15.019531 18.53125 -14.53125 C 19.84375 -14.050781 20.976562 -13.28125 21.9375 -12.21875 C 22.894531 -11.164062 23.375 -9.726562 23.375 -7.90625 C 23.375 -6.34375 22.9375 -4.925781 22.0625 -3.65625 C 21.1875 -2.382812 19.878906 -1.367188 18.140625 -0.609375 C 16.398438 0.140625 14.285156 0.515625 11.796875 0.515625 Z M 11.796875 0.515625 "/></g></g><g style="fill:#ffffff;fill-opacity:1;"><g transform="translate(368.358598, 428.999999)"><path style="stroke:none" d="M 2.609375 -26.125 L 10 -26.125 L 10 0 L 2.609375 0 Z M 2.609375 -26.125 "/></g></g><g style="fill:#ffffff;fill-opacity:1;"><g transform="translate(381.011494, 428.999999)"><path style="stroke:none" d="M 11.796875 0.515625 C 9.679688 0.515625 7.628906 0.253906 5.640625 -0.265625 C 3.648438 -0.785156 2.03125 -1.484375 0.78125 -2.359375 L 3.203125 -7.796875 C 4.378906 -7.023438 5.738281 -6.398438 7.28125 -5.921875 C 8.820312 -5.453125 10.335938 -5.21875 11.828125 -5.21875 C 14.671875 -5.21875 16.09375 -5.929688 16.09375 -7.359375 C 16.09375 -8.097656 15.6875 -8.648438 14.875 -9.015625 C 14.0625 -9.378906 12.757812 -9.757812 10.96875 -10.15625 C 9.007812 -10.570312 7.367188 -11.023438 6.046875 -11.515625 C 4.722656 -12.003906 3.585938 -12.78125 2.640625 -13.84375 C 1.703125 -14.914062 1.234375 -16.359375 1.234375 -18.171875 C 1.234375 -19.765625 1.664062 -21.203125 2.53125 -22.484375 C 3.40625 -23.765625 4.707031 -24.78125 6.4375 -25.53125 C 8.164062 -26.28125 10.285156 -26.65625 12.796875 -26.65625 C 14.515625 -26.65625 16.207031 -26.460938 17.875 -26.078125 C 19.539062 -25.691406 21.007812 -25.125 22.28125 -24.375 L 20.015625 -18.890625 C 17.523438 -20.234375 15.109375 -20.90625 12.765625 -20.90625 C 11.296875 -20.90625 10.222656 -20.6875 9.546875 -20.25 C 8.878906 -19.8125 8.546875 -19.242188 8.546875 -18.546875 C 8.546875 -17.847656 8.941406 -17.328125 9.734375 -16.984375 C 10.535156 -16.640625 11.820312 -16.28125 13.59375 -15.90625 C 15.582031 -15.476562 17.226562 -15.019531 18.53125 -14.53125 C 19.84375 -14.050781 20.976562 -13.28125 21.9375 -12.21875 C 22.894531 -11.164062 23.375 -9.726562 23.375 -7.90625 C 23.375 -6.34375 22.9375 -4.925781 22.0625 -3.65625 C 21.1875 -2.382812 19.878906 -1.367188 18.140625 -0.609375 C 16.398438 0.140625 14.285156 0.515625 11.796875 0.515625 Z M 11.796875 0.515625 "/></g></g></g></svg>