<svg width="21" height="20" viewBox="0 0 21 20" fill="none" xmlns="http://www.w3.org/2000/svg">
<path d="M19.3667 20L12.0167 13C11.4333 13.4444 10.7625 13.7963 10.0042 14.0556C9.24583 14.3148 8.43889 14.4444 7.58333 14.4444C5.46389 14.4444 3.67033 13.7452 2.20267 12.3467C0.735 10.9481 0.000777778 9.24 0 7.22222C0 5.2037 0.734222 3.49556 2.20267 2.09778C3.67111 0.7 5.46467 0.000740741 7.58333 0C9.70278 0 11.4963 0.699259 12.964 2.09778C14.4317 3.4963 15.1659 5.20444 15.1667 7.22222C15.1667 8.03704 15.0306 8.80556 14.7583 9.52778C14.4861 10.25 14.1167 10.8889 13.65 11.4444L21 18.4444L19.3667 20ZM7.58333 12.2222C9.04167 12.2222 10.2814 11.7359 11.3027 10.7633C12.3239 9.79074 12.8341 8.61037 12.8333 7.22222C12.8333 5.83333 12.3227 4.65259 11.3015 3.68C10.2803 2.70741 9.04089 2.22148 7.58333 2.22222C6.125 2.22222 4.88522 2.70852 3.864 3.68111C2.84278 4.6537 2.33256 5.83407 2.33333 7.22222C2.33333 8.61111 2.84394 9.79185 3.86517 10.7644C4.88639 11.737 6.12578 12.223 7.58333 12.2222Z" fill="white"/>
</svg>
